<?xml version="1.0" standalone="no"?>
<!DOCTYPE svg PUBLIC "-//W3C//DTD SVG 20010904//EN"
 "http://www.w3.org/TR/2001/REC-SVG-20010904/DTD/svg10.dtd">
<svg version="1.0" xmlns="http://www.w3.org/2000/svg"
 width="320.000000pt" height="320.000000pt" viewBox="0 0 320.000000 320.000000"
 preserveAspectRatio="xMidYMid meet">
<metadata>
Created by potrace 1.14, written by Peter Selinger 2001-2017
</metadata>
<g transform="translate(0.000000,320.000000) scale(0.100000,-0.100000)"
fill="#000000" stroke="none">
<path d="M1608 2995 c-2 -1 -28 -5 -58 -9 -30 -3 -66 -8 -80 -11 -14 -3 -36
-7 -50 -10 -42 -8 -152 -46 -217 -75 -209 -95 -382 -272 -463 -474 -52 -129
-62 -193 -65 -398 -2 -177 -4 -192 -30 -264 -15 -42 -59 -123 -96 -180 -107
-163 -120 -198 -95 -259 16 -36 41 -55 114 -80 81 -29 88 -42 70 -117 -17 -74
-14 -99 18 -133 23 -24 23 -30 12 -66 -17 -58 6 -101 66 -124 25 -10 46 -20
46 -24 0 -3 -4 -22 -10 -41 -32 -122 -2 -224 77 -257 34 -14 115 -18 163 -9
27 5 122 22 185 32 62 11 100 7 128 -10 32 -22 79 -112 107 -204 25 -86 51
-107 95 -78 30 20 31 31 5 125 -25 87 -59 158 -101 205 -75 86 -127 94 -349
56 -30 -6 -66 -12 -80 -15 -48 -10 -102 -7 -115 6 -21 21 -24 59 -9 114 23 88
19 113 -26 157 -23 21 -47 38 -55 38 -20 0 -19 3 10 46 35 52 19 93 -42 110
-13 3 -23 11 -23 18 0 10 23 93 30 106 5 10 -31 85 -51 106 -18 19 -93 57
-152 78 -17 6 -16 10 14 64 17 31 46 76 64 99 47 62 102 179 124 264 15 59 18
102 15 214 -1 77 2 167 7 200 58 362 354 627 761 682 70 9 247 9 323 -1 146
-20 357 -102 458 -180 26 -20 60 -39 75 -42 47 -10 77 -44 78 -89 2 -84 54
-137 135 -139 57 -1 95 23 122 77 34 67 -3 161 -71 185 -32 11 -100 7 -116 -7
-8 -7 -29 4 -67 35 -168 138 -329 215 -544 259 -67 14 -326 30 -337 20z m1045
-399 c33 -25 11 -86 -32 -86 -28 0 -54 35 -46 62 13 39 45 49 78 24z"/>
<path d="M1780 2830 c-30 -30 -15 -51 90 -130 92 -69 94 -72 92 -108 -5 -72
60 -142 131 -142 42 0 93 25 113 55 68 104 -5 225 -130 216 -16 -1 -35 -6 -42
-12 -10 -8 -37 7 -106 58 -113 84 -123 88 -148 63z m360 -219 c12 -24 -10 -65
-38 -69 -30 -4 -52 14 -52 44 0 46 68 65 90 25z"/>
<path d="M1661 2637 c-15 -19 -1 -36 88 -102 80 -59 86 -62 98 -42 17 27 8 39
-70 97 -85 63 -98 68 -116 47z"/>
<path d="M1416 2595 c-19 -20 -20 -36 -3 -57 6 -9 95 -78 196 -153 l185 -137
50 6 c28 3 60 8 71 10 12 2 48 8 80 12 33 4 62 8 65 9 3 1 34 5 70 10 36 5 67
9 70 10 3 1 33 5 68 9 62 8 63 8 107 -29 36 -29 44 -41 41 -61 -5 -26 11 -82
28 -100 45 -44 119 -59 167 -34 86 46 101 163 28 224 -46 39 -84 44 -154 21
-14 -4 -36 6 -74 34 -59 45 -76 47 -176 31 -33 -5 -80 -13 -105 -16 -25 -3
-54 -8 -64 -10 -10 -2 -69 -11 -131 -20 l-112 -16 -179 133 c-98 72 -186 134
-195 136 -9 3 -23 -3 -33 -12z m1168 -351 c29 -29 18 -61 -27 -77 -23 -9 -58
26 -54 54 6 38 53 52 81 23z"/>
<path d="M1028 2433 c-23 -6 -34 -49 -18 -68 7 -8 52 -44 100 -80 82 -61 88
-68 86 -98 -12 -148 190 -205 254 -72 56 116 -54 231 -175 185 -23 -9 -34 -4
-103 48 -100 76 -123 90 -144 85z m347 -243 c10 -31 -12 -60 -45 -60 -52 0
-66 71 -17 89 27 10 53 -2 62 -29z"/>
<path d="M2191 2246 c-6 -7 -9 -20 -6 -28 6 -16 157 -128 172 -128 16 0 31 22
26 37 -6 15 -160 133 -174 133 -3 0 -12 -6 -18 -14z"/>
<path d="M1597 2223 c-4 -3 -7 -14 -7 -23 0 -23 633 -495 663 -495 15 0 23 7
24 20 2 14 -15 33 -60 66 -34 26 -181 135 -326 243 -145 108 -269 196 -276
196 -6 0 -15 -3 -18 -7z"/>
<path d="M1972 2178 c-32 -32 -14 -52 191 -205 l202 -151 1 -46 c1 -55 25 -93
75 -119 79 -42 185 13 190 98 4 64 -2 84 -31 114 -41 41 -91 54 -141 37 l-39
-14 -200 149 c-110 82 -208 149 -218 149 -10 0 -23 -5 -30 -12z m558 -368 c24
-24 25 -43 4 -64 -30 -31 -84 -9 -84 34 0 17 34 50 52 50 5 0 17 -9 28 -20z"/>
<path d="M1564 2003 c-5 -1 -108 -16 -229 -33 -120 -18 -222 -33 -226 -36 -4
-2 -30 12 -58 31 -28 19 -56 35 -64 35 -20 0 -37 -21 -37 -47 0 -30 110 -113
143 -108 42 7 191 29 352 51 22 3 58 9 80 13 22 4 50 7 62 6 12 0 174 -113
376 -263 l354 -264 -3 -36 c-3 -45 27 -103 66 -125 57 -34 150 -13 182 41 68
116 -36 247 -162 203 -36 -12 20 -50 -492 332 -278 208 -292 216 -344 200z
m926 -633 c22 -42 -14 -86 -57 -69 -27 10 -38 42 -23 69 15 27 65 27 80 0z"/>
<path d="M1246 1774 c-29 -28 -18 -51 46 -98 21 -16 37 -31 36 -34 -2 -6 10
-103 17 -142 1 -8 5 -36 9 -61 4 -25 9 -57 11 -70 2 -13 6 -40 9 -59 2 -19 8
-57 12 -85 16 -121 14 -116 106 -176 6 -4 12 -29 13 -57 6 -97 83 -155 172
-130 40 11 93 60 94 87 0 9 2 24 4 34 6 33 -15 86 -46 111 -37 32 -87 41 -133
26 -33 -10 -39 -9 -76 17 -22 16 -40 37 -41 48 0 11 -2 29 -4 40 -4 21 -32
214 -41 275 -11 85 -26 176 -30 192 -5 19 -111 98 -131 98 -6 0 -19 -7 -27
-16z m428 -750 c9 -8 16 -22 16 -30 0 -17 -35 -54 -52 -54 -18 0 -48 31 -48
51 0 23 26 49 50 49 10 0 26 -7 34 -16z"/>
<path d="M1554 1765 c-3 -8 -3 -19 1 -25 6 -9 335 -259 432 -328 35 -24 63
-20 63 9 0 23 -443 359 -473 359 -10 0 -20 -7 -23 -15z"/>
<path d="M1032 1698 c-24 -24 -9 -44 70 -101 81 -59 111 -67 116 -32 2 15 -16
34 -65 71 -91 68 -107 76 -121 62z"/>
<path d="M901 1538 c-5 -13 -7 -28 -4 -34 2 -6 42 -39 88 -73 l85 -63 0 -50
c0 -45 4 -54 39 -89 34 -35 44 -39 87 -39 112 0 177 103 126 199 -32 60 -115
88 -176 60 -22 -10 -32 -5 -104 50 -88 67 -127 77 -141 39z m337 -180 c27 -27
0 -88 -35 -82 -7 1 -17 2 -23 3 -5 0 -14 10 -20 22 -24 43 43 92 78 57z"/>
<path d="M1576 1524 c-17 -17 -20 -33 -8 -50 4 -6 81 -65 172 -133 l165 -122
6 -53 c10 -88 63 -136 145 -131 49 3 73 17 103 61 47 68 10 175 -68 202 -29
10 -84 7 -108 -7 -12 -6 -59 24 -189 120 -94 71 -179 129 -187 129 -9 0 -23
-7 -31 -16z m495 -314 c23 -13 26 -62 3 -80 -20 -18 -64 -2 -75 26 -5 16 -2
28 12 43 22 24 32 25 60 11z"/>
<path d="M1517 1339 c-31 -18 -18 -36 64 -98 84 -64 99 -70 118 -47 14 17 -3
38 -84 98 -79 58 -78 58 -98 47z"/>
</g>
</svg>
